<svg xmlns="http://www.w3.org/2000/svg" viewBox="0 0 64 64"><defs><style>.cls-1{fill:#37474f;}.cls-2{fill:#b0bec5;}.cls-3{fill:#78909c;}.cls-4{fill:#925df9;}.cls-5{fill:#cd00ff;}.cls-6{fill:#ff00b7;}</style></defs><title>Magic Wand</title><g id="Layer_2" data-name="Layer 2"><g id="Layer_1-2" data-name="Layer 1"><path class="cls-1" d="M64,9a2.41,2.41,0,0,1-.71,1.71L56,18,10.71,63.29a2.41,2.41,0,0,1-3.42,0L.71,56.71a2.41,2.41,0,0,1,0-3.42L46,8,53.29.71a2.41,2.41,0,0,1,3.42,0l6.58,6.58A2.41,2.41,0,0,1,64,9Z"/><path class="cls-2" d="M64,9a2.41,2.41,0,0,1-.71,1.71L55,19,45,9,53.29.71a2.41,2.41,0,0,1,3.42,0l6.58,6.58A2.41,2.41,0,0,1,64,9Z"/><rect class="cls-3" x="46.17" y="7.93" width="5.66" height="14.14" transform="translate(3.75 39.04) rotate(-45)"/><polygon class="cls-4" points="52 40 48 52 52 64 56 52 52 40"/><polygon class="cls-4" points="64 52 52 48 40 52 52 56 64 52"/><polygon class="cls-5" points="24 0 22 8 24 16 26 8 24 0"/><polygon class="cls-5" points="32 8 24 6 16 8 24 10 32 8"/><circle class="cls-5" cx="44" cy="40" r="2"/><circle class="cls-6" cx="60" cy="32" r="4"/><circle class="cls-6" cx="19" cy="21" r="3"/><circle class="cls-4" cx="10" cy="10" r="2"/></g></g></svg>